# xmcd CD database file
#
# Track frame offsets:
#	150
#	21728
#	38879
#	54118
#	69843
#	86189
#	94139
#	105224
#	128187
#	148004
#	167902
#	180812
#
# Disc length: 2662 seconds
#
# Revision: 0
# Processed by: cddbd v1.5.1PL0 Copyright (c) Steve Scherf et al.
# Submitted via: CDex 1.51
#
DISCID=980a640c
DTITLE=THE KILLS - NO WOW (Japan)
DYEAR=2005
DGENRE=Rock
TTITLE0=No Wow
TTITLE1=Telephone Radio Germany - Love is a Deserter
TTITLE2=Dead Road 7
TTITLE3=The Good Ones
TTITLE4=I Hate the Way You Love
TTITLE5=I Hate the Way You Love, Pt.2
TTITLE6=At the Back of the Shell
TTITLE7=Sweet Cloud
TTITLE8=Rodeo Town
TTITLE9=Murdermile
TTITLE10=Ticket Man
TTITLE11=Run Home Slow
EXTD=YEAR: 2005
EXTT0=
EXTT1=
EXTT2=
EXTT3=
EXTT4=
EXTT5=
EXTT6=
EXTT7=
EXTT8=
EXTT9=
EXTT10=
EXTT11=
PLAYORDER=
